<svg width="76" height="43" viewBox="0 0 76 43" fill="none" xmlns="http://www.w3.org/2000/svg">
<path d="M65.1348 0C71.0696 0 75.8808 4.81117 75.8808 10.746V42.9842H65.1348V0Z" fill="white"/>
<path d="M32.8965 0H43.6425V42.9842C37.7076 42.9842 32.8965 38.173 32.8965 32.2381V0Z" fill="white"/>
<path d="M49.0156 0H59.7617V42.9842H49.0156V0Z" fill="white"/>
<path d="M16.8066 0.0161133C22.7415 0.0161133 27.5527 4.82728 27.5527 10.7622V16.1352C27.5527 22.07 22.7415 26.8812 16.8066 26.8812V0.0161133Z" fill="white"/>
<path d="M0.685547 10.7622C0.685547 4.82728 5.49671 0.0161133 11.4316 0.0161133V32.2542C11.4316 38.1891 6.62042 43.0003 0.685547 43.0003V10.7622Z" fill="white"/>
</svg>