<svg width="38" height="56" viewBox="0 0 38 56" fill="none" xmlns="http://www.w3.org/2000/svg">
<g clip-path="url(#clip0_109_158)">
<path d="M37.5 0H0V55.5H37.5V0Z" fill="white"/>
<path d="M3 30.7809V51.7223C3 52.1526 3.41009 52.5 3.9181 52.5H14.5803C15.1098 52.5 15.529 52.1241 15.4984 51.6782C15.2352 48.0074 13.6071 33.1607 4.23944 30.0524C3.64267 29.8554 3 30.2391 3 30.7835V30.7809Z" fill="black"/>
<path d="M23.3313 41.9613C23.8707 43.002 26.2161 47.711 26.5649 51.7503C26.5971 52.1239 26.9379 52.415 27.3539 52.4199L33.6842 52.4999C34.1324 52.5048 34.5 52.1773 34.5 51.7721V34.4794C34.5 33.9529 33.9043 33.6011 33.3703 33.8122C30.7029 34.8748 24.1686 37.8273 23.2669 41.5149C23.2294 41.6653 23.2562 41.8205 23.3287 41.9613H23.3313Z" fill="black"/>
<path d="M3 3.74768V16.5206C3 16.7474 3.10779 16.9617 3.29444 17.1038C5.07424 18.4546 14.3938 25.8467 17.6932 34.7416C17.8062 35.0431 18.1007 35.25 18.4398 35.25H19.7621C20.0093 35.25 20.2432 35.1403 20.3905 34.9534C21.4079 33.6674 25.8797 28.5234 33.9321 26.208C34.2687 26.1108 34.5 25.8217 34.5 25.4903V3.74768C34.5 3.33396 34.1477 3 33.7113 3H3.78868C3.35228 3 3 3.33396 3 3.74768Z" fill="black"/>
</g>
<defs>
<clipPath id="clip0_109_158">
<rect width="37.5" height="55.5" rx="0.75" fill="white"/>
</clipPath>
</defs>
</svg>