<svg width="434" height="385" viewBox="0 0 434 385" fill="none" xmlns="http://www.w3.org/2000/svg">
<path d="M260.172 371.67C171.372 406.78 65.7417 368.45 20.8417 279.02C-28.1083 181.52 13.7317 71.0404 98.7717 24.3204C194.252 -28.1496 297.272 11.9104 341.492 72.1804C301.192 32.0104 252.652 12.6504 195.882 16.5304C154.922 19.3304 118.812 35.0804 88.2617 62.7804C28.7317 116.74 11.4617 202.29 46.7817 276.48C79.2817 344.73 163.472 397.83 260.172 371.67Z" fill="black"/>
<path d="M237.96 245.937C225.45 245.277 217.73 236.737 209.41 229.107C207.77 227.607 205.55 226.677 203.5 225.677C195.66 221.867 187.15 219.157 181.25 212.217C180.39 211.197 180.25 209.527 179.89 208.137C179.32 205.957 178.84 203.757 178.32 201.567C177.03 196.137 175.41 190.767 174.63 185.267C174.33 183.117 175.91 180.707 176.7 178.217C175.28 178.647 174.03 179.037 172.23 179.587C173.09 175.547 173.82 172.077 174.75 167.667C173.27 169.027 172.08 169.677 171.56 170.667C167.66 178.087 160.48 184.117 161.61 193.677C161.84 195.587 161.8 197.977 162.92 199.247C168.31 205.417 174.04 211.277 180.95 218.627C177.16 218.937 174.19 220.047 172.07 219.147C169.5 218.057 167.27 215.547 165.57 213.167C161.57 207.587 158.1 201.627 154.06 196.077C153.55 195.377 150.79 195.927 149.26 196.437C144.89 197.897 140.02 195.387 140.3 190.917C140.62 185.837 139.14 182.277 133.89 179.627C139.15 177.987 143.61 176.607 148.07 175.217C148 174.707 147.92 174.197 147.85 173.687C144.72 173.947 140.6 173.047 138.68 174.707C134.64 178.197 132.28 175.167 131.11 173.017C125.62 162.967 115.98 163.477 106.79 162.597C104.98 162.427 102.97 162.957 101.35 162.347C93.07 159.227 85.75 163.267 78.32 165.507C75.99 166.207 74.11 169.047 72.45 171.237C68.37 176.607 63.35 180.117 57 180.667C59.25 177.217 61.4 173.607 63.87 170.227C68.93 163.287 76.29 160.147 84.36 158.217C86.66 157.667 88.89 156.777 91.09 155.867C96.65 153.577 102.16 151.187 107.7 148.837C107.93 149.257 108.15 149.667 108.38 150.087C107.05 151.837 105.72 153.587 103.46 156.547C106.91 156.547 109.21 156.417 111.5 156.577C116.39 156.927 121.39 156.907 126.13 158.007C130.46 159.007 134.16 159.527 137.64 156.127C139.42 154.397 141.5 152.937 143.59 151.597C146.14 149.957 148.6 147.437 152.07 149.807C152.4 150.027 153.04 149.777 153.54 149.757C158.25 149.567 166.49 145.007 170.05 141.717C172.9 139.087 175.75 133.867 180.89 139.147C181.32 139.587 183.38 138.767 184.48 138.157C204.67 126.957 225.2 116.467 246.9 108.427C252.38 106.397 256.44 102.987 256.13 96.3768C256.13 96.2168 256.13 96.0268 256.18 95.8768C259.93 86.3868 263.73 76.9068 267.41 67.3868C268.59 64.3368 269.41 61.1468 270.53 58.0768C271.15 56.3668 271.65 54.2768 272.92 53.2268C274.48 51.9268 276.82 50.9068 278.76 51.0068C279.73 51.0568 281.3 53.8868 281.3 55.4668C281.32 66.0968 280.59 76.7468 280.91 87.3668C281.13 94.7268 281.24 102.627 283.99 109.197C286.29 114.697 291.77 119.417 296.85 123.077C307.81 130.977 319.5 137.857 330.7 145.427C333.15 147.087 334.98 149.757 336.87 152.147C341.6 158.117 346.37 163.577 353.92 166.667C360.08 169.187 365.82 173.387 370.88 177.817C378.24 184.247 385.88 190.817 391.46 198.697C397.87 207.747 405.96 216.387 407.14 228.297C407.88 235.777 408.94 242.997 412.65 249.807C414.94 254.017 411.63 259.697 407.12 262.187C403.04 264.437 399.29 267.277 395.84 269.557C389.05 269.907 382.19 269.447 375.7 270.767C357.77 274.397 340.02 273.027 322.22 270.267C314.68 269.097 306.99 268.467 299.66 266.487C292.16 264.467 284.37 262.997 277.98 257.607C271.27 251.947 263.97 251.757 257.2 257.477C251.07 262.657 245.88 268.977 240.48 274.967C234.5 281.597 228.78 288.447 222.89 295.157C218.24 300.457 213.85 306.047 208.73 310.857C195.04 323.717 181.24 336.487 167.01 348.747C161.65 353.357 155.14 356.737 148.86 360.107C146.91 361.157 143.96 360.357 141.47 360.397C142.12 358.217 142.14 355.447 143.54 353.967C149.58 347.577 156.36 341.877 162.24 335.347C174.69 321.527 186.74 307.347 198.98 293.327C200.18 291.947 201.41 290.557 202.82 289.417C206.94 286.077 209.95 282.267 212.63 277.417C216.05 271.217 222.27 266.577 227.18 261.167C231.23 256.707 235.12 252.107 239.08 247.567C238.71 247.017 238.35 246.477 237.98 245.927L237.96 245.937ZM303.73 148.887C302.18 148.987 300.63 149.037 299.09 149.207C295.89 149.557 292.67 150.417 289.51 150.247C285.39 150.027 285.41 149.687 283.61 152.027C290.57 153.307 297.54 153.047 303.81 148.747C305.05 150.737 304.64 155.097 309.28 152.017C310.55 151.167 314.24 151.437 314.61 152.227C315.63 154.417 316.99 155.577 318.23 153.547C319.23 151.917 319.36 148.517 318.29 147.077C315.09 142.757 308.95 142.407 302.49 145.767C306.9 146.397 310.84 146.957 314.78 147.527L314.52 149.657C310.94 149.387 307.36 149.107 303.73 148.887ZM394.48 267.027L401.54 263.607C400.34 262.787 399.05 262.647 397.84 262.247C390.32 259.777 382.64 257.687 375.36 254.627C363.58 249.667 352.19 243.787 340.4 238.847C335.06 236.607 329.14 236.337 324.71 231.487C319.81 226.127 312.32 227.407 305.88 226.527C290.88 224.477 275.92 224.077 262.58 231.457C264.41 234.977 266.35 238.477 268.07 242.097C269.42 244.927 269.71 248.727 271.81 250.637C279.64 257.757 288.59 263.517 299.19 265.277C314.42 267.817 329.73 270.557 345.1 271.347C356.23 271.917 367.51 269.437 378.73 268.367C383.68 267.897 388.64 267.527 394.48 267.037V267.027ZM230.53 136.427C230.73 136.867 230.94 137.307 231.14 137.757C226.1 141.657 221.05 145.557 216.01 149.457L216.99 150.917C218.52 150.147 220.04 149.357 221.58 148.617C224.87 147.047 228.08 145.247 231.49 143.987C240.3 140.717 249.19 137.637 258.08 134.567C260.26 133.817 262.51 133.047 264.78 132.847C268.89 132.487 273.06 132.737 277.16 132.317C278.61 132.167 279.93 130.827 281.88 129.697C263.64 128.377 248.05 133.487 233.08 141.187C232.81 140.657 232.55 140.117 232.28 139.587C235.52 136.977 238.76 134.377 242.37 131.477C240.54 130.897 239.6 130.607 238.11 130.137C243.08 126.417 247.18 122.617 251.94 120.037C255.39 118.167 259.81 116.847 263.63 117.187C270.57 117.807 275.28 113.587 281.14 112.027C280.97 111.427 280.81 110.837 280.64 110.237C277.44 110.997 274.24 111.757 271.05 112.507C269.02 111.677 266.77 110.967 264.73 111.337C256.19 112.917 249.6 118.217 242.78 123.177C237.12 127.297 231.92 131.997 224.5 133.567C219.38 134.647 214.77 138.037 209.81 140.097C208.45 140.667 206.65 140.187 204.64 140.187C213.51 133.777 221.46 128.037 229.42 122.287C229.33 122.077 229.25 121.867 229.16 121.647C224.63 123.447 220.11 125.237 215.58 127.037C215.39 126.597 215.19 126.157 215 125.707C224.21 121.797 233.42 117.897 243.56 113.597C241.88 112.747 241.52 112.417 241.35 112.497C229.66 117.967 217.95 123.417 206.32 129.017C204.75 129.777 203.65 131.467 202.13 132.387C198.12 134.807 193.68 136.617 189.98 139.427C178.98 147.787 170 158.207 161.67 169.137C159.28 172.267 158.07 176.297 156.31 179.917C156.85 180.287 157.39 180.667 157.93 181.037C159.56 179.177 162.77 177.107 162.55 175.507C161.73 169.647 165.47 166.587 169.18 164.347C175.49 160.537 180.62 155.757 185.12 150.067C186.66 148.117 188.41 146.227 190.41 144.797C192.95 142.987 195.85 141.677 198.59 140.157C198.78 140.507 198.96 140.857 199.15 141.217C191.37 149.927 183.59 158.637 175.82 167.337C178.53 172.027 180.53 169.077 182.27 167.097C186.18 162.647 189.9 158.037 193.7 153.497C194.18 153.897 194.66 154.297 195.14 154.707C191.67 159.417 188.62 164.527 184.61 168.707C181.19 172.267 179.85 176.087 179.93 180.817C181.56 179.007 182.51 176.757 183.98 174.937C191.03 166.207 198.03 157.407 205.44 148.977C212.1 141.407 221.97 140.227 230.51 136.437L230.53 136.427ZM335.02 210.827C332.06 205.127 326.46 201.297 319.94 198.617C311.99 195.347 304.01 192.117 295.95 189.147C291.21 187.397 286.33 185.917 281.39 184.907C280.23 184.667 277.48 186.707 277.38 187.857C277.17 190.337 277.51 193.387 278.84 195.397C289.51 211.527 303.24 219.617 323.38 217.207C324.98 217.017 326.46 215.677 327.98 214.837C330 213.717 332.01 212.557 335.03 210.837L335.02 210.827ZM184.02 180.587C193.5 181.687 199.94 178.607 200.13 173.607C197.55 174.217 194.97 174.837 191.41 175.687C199.31 167.347 206.41 159.847 213.51 152.357C212.95 151.847 212.39 151.337 211.83 150.827C199.51 157.397 192.7 169.237 184.03 180.597L184.02 180.587ZM140.91 165.367C141.38 165.927 141.85 166.487 142.32 167.047C155.07 159.147 167.82 151.247 180.57 143.347C180.28 142.647 179.98 141.957 179.69 141.257C178.65 141.457 177.44 141.387 176.6 141.907C171.42 145.087 166.68 149.427 161.1 151.417C154.13 153.897 148.61 158.057 143.07 162.477C142.16 163.197 141.63 164.387 140.92 165.357L140.91 165.367ZM190.24 206.747C189.09 208.067 188.17 209.107 186.95 210.507C189.18 211.437 191.19 212.277 193.19 213.117C193.4 212.647 193.61 212.177 193.82 211.717C193.05 210.847 192.28 209.967 192.03 209.687C194.36 207.197 196.41 205.017 198.65 202.617C205.55 202.783 209.427 202.163 210.28 200.757C207.82 199.287 205.36 197.817 202.9 196.347C202.94 196.677 202.98 197.007 203.02 197.327C199.52 197.617 196.01 197.897 192.51 198.187C192.13 198.517 191.75 198.847 191.37 199.177C192.94 199.677 194.5 200.177 196.07 200.677C195.69 201.357 195.31 202.037 194.94 202.717C190.83 201.777 186.72 200.837 182.61 199.897C182.47 200.377 182.33 200.857 182.19 201.327C183.51 202.097 184.88 202.797 186.14 203.657C187.47 204.557 188.7 205.587 190.23 206.767L190.24 206.747ZM217.22 222.747C217.02 223.087 216.81 223.437 216.61 223.777C218.29 223.777 219.99 223.977 221.64 223.737C225.27 223.217 228.88 221.927 232.49 221.957C237.83 221.997 242.21 219.317 243.8 213.917C239.89 213.917 235.6 212.867 232.19 214.157C226.88 216.177 222.18 219.797 217.23 222.737L217.22 222.747ZM226.73 126.707C226.84 127.247 226.95 127.777 227.06 128.317C232.58 125.637 239.17 124.047 243.32 119.977C247.72 115.667 252.87 113.367 257.77 110.277C260.7 108.427 263.49 106.367 266.34 104.397C263.52 103.087 261.28 102.617 259.06 102.707C258.04 102.747 256.88 103.727 256.1 104.577C253.77 107.087 252.01 110.337 249.28 112.237C241.96 117.357 234.26 121.927 226.72 126.717L226.73 126.707ZM293 173.557C307.82 173.947 322.81 172.097 337.24 177.887C337.31 177.007 337.37 176.117 337.44 175.237C322.77 172.767 308.41 166.067 293 173.557ZM266.55 149.317C266.12 148.587 265.69 147.847 265.26 147.117C252.43 149.977 241.44 156.887 230.17 163.197C230.39 163.737 230.61 164.267 230.84 164.807C241.02 159.977 251.2 155.157 261.38 150.327C261.55 150.677 261.73 151.017 261.9 151.367C260.42 152.227 258.94 153.077 257.45 153.937C257.8 154.427 258.14 154.917 258.49 155.407C261.17 153.377 263.86 151.347 266.54 149.317H266.55ZM291.47 145.217C300.16 143.447 308.57 141.737 316.95 140.037C311.75 135.107 302.89 136.857 291.47 145.217ZM334.15 178.707C329.64 177.947 325.45 177.007 321.2 176.657C319.92 176.547 318.47 178.017 317.2 178.917C317.08 178.997 317.57 180.407 318.08 180.827C320.78 183.027 331.28 181.837 334.14 178.717L334.15 178.707ZM204.31 165.027C204.72 165.857 205.13 166.677 205.54 167.507C207.62 166.477 210 165.797 211.72 164.337C214.38 162.087 216.57 159.287 219.01 156.757C220.2 155.517 221.49 154.367 222.73 153.177C222.36 152.747 222 152.317 221.63 151.877C215.86 156.257 210.08 160.637 204.31 165.027ZM277.03 173.507L277.99 175.037C279.62 173.927 282.77 172.527 282.62 171.757C281.91 168.027 285.22 168.277 286.73 166.927C288.18 165.637 290.04 164.817 291.72 163.797L290.77 162.487C283.66 162.997 281.21 169.337 277.03 173.507ZM290.9 156.637C290.94 155.987 290.98 155.347 291.01 154.697H274.09C276.3 157.147 277.5 158.487 278.7 159.817C279.06 159.507 279.42 159.197 279.78 158.877C279.42 158.117 279.06 157.357 278.71 156.627H290.89L290.9 156.637ZM259.59 96.6268C264.78 99.3268 272.01 97.5168 277.37 91.7668C270.81 93.5568 265.6 94.9868 259.59 96.6268ZM338.95 170.227C337.19 165.597 333.03 163.977 326.94 165.217C329.7 170.537 334.69 168.637 338.95 170.227ZM208 218.617C208.27 214.757 208.49 211.727 208.7 208.697C208.24 208.587 207.79 208.477 207.33 208.377C205.56 211.397 203.79 214.417 201.71 217.947C204.63 218.257 206.83 218.497 208 218.617ZM92.35 157.077C92.42 157.597 92.49 158.107 92.56 158.627C95.38 158.967 98.19 159.457 101.01 159.527C101.67 159.547 103.02 157.997 102.9 157.417C102.67 156.357 101.41 154.597 100.87 154.687C97.98 155.207 95.18 156.217 92.35 157.067V157.077ZM139.45 159.747C139.23 159.527 139.01 159.317 138.8 159.097C136.59 162.247 134.27 165.327 132.27 168.617C131.88 169.257 132.75 170.677 133.05 171.737C133.96 171.157 135.34 170.777 135.69 169.957C137.12 166.627 138.23 163.167 139.46 159.747H139.45ZM209.15 179.587C212.49 177.717 215.09 176.267 218.51 174.357C211.33 171.397 209.01 172.707 209.15 179.587ZM233.48 225.227H222.57C224.66 229.067 228.61 229.147 233.48 225.227ZM144.92 181.177C149.69 181.647 154.34 177.567 154.35 172.217C151.08 175.327 147.87 178.367 144.92 181.177ZM391.56 225.417C393.16 228.847 394.26 231.347 395.51 233.777C395.73 234.207 396.64 234.607 397.11 234.497C397.55 234.397 398.18 233.567 398.13 233.117C397.74 229.627 396.72 226.527 391.57 225.417H391.56ZM363.32 179.267C360.1 178.017 356.87 176.777 353.65 175.527C357.77 180.897 359.55 181.717 363.32 179.267ZM250.23 125.937C250.6 126.527 250.96 127.127 251.33 127.717C254.7 125.577 258.07 123.447 261.44 121.307C261.17 120.847 260.89 120.377 260.62 119.917C257.15 121.927 253.69 123.927 250.22 125.937H250.23Z" fill="black"/>
<path d="M411.056 159.09C410.786 155.1 410.456 152.39 410.466 149.68C410.486 146.04 409.376 143.53 405.836 141.71C399.506 138.44 398.046 134.6 399.906 127.64C400.916 123.86 401.856 120.22 399.756 117.87C392.906 117.3 387.026 116.9 381.176 116.28C377.896 115.93 374.676 114.79 371.826 117.76C371.286 118.32 369.386 117.87 368.226 117.5C361.756 115.45 355.326 113.29 348.876 111.17C346.356 110.34 343.596 109.92 341.366 108.6C331.386 102.68 326.716 94.53 336.056 83.25C339.846 95.54 347.076 104.52 359.336 108.48C370.966 112.23 382.866 112.02 395.856 110.07C393.996 108.01 392.616 106.39 391.136 104.86C387.346 100.96 383.406 97.2 379.716 93.21C376.306 89.52 374.116 84.41 367.956 84.08C367.416 84.05 366.376 81.17 366.676 79.87C367.676 75.52 369.576 71.35 370.406 66.98C372.506 56.01 367.716 47.2 360.806 39.27C358.956 37.14 356.796 35.29 354.786 33.29C350.146 28.69 349.906 27.74 351.486 20C359.426 28.35 365.286 37.81 368.986 48.22C372.066 56.89 374.086 66.1 375.256 75.24C376.196 82.58 379.716 87.38 385.186 91.59C389.096 94.6 392.666 98.07 396.446 101.26C399.586 103.91 402.946 106.33 405.956 109.12C407.696 110.74 409.296 112.72 410.336 114.84C412.486 119.21 414.226 123.79 416.136 128.29C416.676 128.19 417.226 128.1 417.766 128V114.92C418.096 114.84 418.426 114.77 418.756 114.69C419.246 116.15 420.216 117.64 420.156 119.08C419.726 130.14 421.846 140.54 427.356 150.22C428.236 151.76 429.106 153.78 428.846 155.4C428.026 160.41 428.316 164.23 432.666 168.21C435.326 170.64 432.906 174.98 429.416 177.26C426.106 179.43 422.236 178.8 419.726 175.76C418.766 174.59 417.396 173.75 416.176 172.72C416.416 172.54 417.376 171.82 418.486 170.99C407.916 166.67 387.846 139.93 390.916 135.23C397.446 142.97 404.046 150.81 411.036 159.1L411.056 159.09Z" fill="black"/>
</svg>